<svg xmlns="http://www.w3.org/2000/svg" viewBox="0 0 1000 1000" role="img" aria-labelledby="t d">
  <title id="t">All-Star Studio star</title>
  <desc id="d">A five-point star filled with colorful rays, stripes, and dots.</desc>
  <defs>
    <clipPath id="ass-clip"><path d="M460.8,139.5 A30,30 0 0 1 487.7,122.8 L512.3,122.8 A30,30 0 0 1 539.2,139.5 L622.3,307.9 A30,30 0 0 0 644.9,324.3 L830.7,351.3 A30,30 0 0 1 855,371.7 L862.6,395.2 A30,30 0 0 1 855,425.9 L720.5,557 A30,30 0 0 0 711.9,583.5 L743.6,768.6 A30,30 0 0 1 731.7,797.9 L711.8,812.4 A30,30 0 0 1 680.2,814.7 L514,727.3 A30,30 0 0 0 486,727.3 L319.8,814.7 A30,30 0 0 1 288.2,812.4 L268.3,797.9 A30,30 0 0 1 256.4,768.6 L288.1,583.5 A30,30 0 0 0 279.5,557 L145,425.9 A30,30 0 0 1 137.4,395.2 L145,371.7 A30,30 0 0 1 169.3,351.3 L355.1,324.3 A30,30 0 0 0 377.7,307.9 Z"/></clipPath>
    <pattern id="ass-stripes" width="36" height="36" patternUnits="userSpaceOnUse" patternTransform="rotate(45)"><rect width="12" height="36" fill="#fff" fill-opacity=".35"/></pattern>
    <pattern id="ass-dots" width="40" height="40" patternUnits="userSpaceOnUse"><circle cx="20" cy="20" r="7" fill="#fff" fill-opacity=".4"/></pattern>
  </defs>
  <g clip-path="url(#ass-clip)">
    <path d="M488 520L332 -366L796 -326Z" fill="#24558A"/>
    <path d="M488 520L796 -326L1177 -59Z" fill="#F2B21A"/>
    <path d="M488 520L796 -326L1177 -59Z" fill="url(#ass-stripes)"/>
    <path d="M488 520L1177 -59L1374 364Z" fill="#E56B6F"/>
    <path d="M488 520L1374 364L1334 828Z" fill="#8056A6"/>
    <path d="M488 520L1374 364L1334 828Z" fill="url(#ass-dots)"/>
    <path d="M488 520L1334 828L1067 1209Z" fill="#188C93"/>
    <path d="M488 520L1067 1209L644 1406Z" fill="#4C9653"/>
    <path d="M488 520L1067 1209L644 1406Z" fill="url(#ass-stripes)"/>
    <path d="M488 520L644 1406L180 1366Z" fill="#24558A"/>
    <path d="M488 520L180 1366L-201 1099Z" fill="#F2B21A"/>
    <path d="M488 520L-201 1099L-398 676Z" fill="#E56B6F"/>
    <path d="M488 520L-201 1099L-398 676Z" fill="url(#ass-dots)"/>
    <path d="M488 520L-398 676L-358 212Z" fill="#8056A6"/>
    <path d="M488 520L-358 212L-91 -169Z" fill="#188C93"/>
    <path d="M488 520L-358 212L-91 -169Z" fill="url(#ass-stripes)"/>
    <path d="M488 520L-91 -169L332 -366Z" fill="#4C9653"/>
  </g>
  <path d="M460.8,139.5 A30,30 0 0 1 487.7,122.8 L512.3,122.8 A30,30 0 0 1 539.2,139.5 L622.3,307.9 A30,30 0 0 0 644.9,324.3 L830.7,351.3 A30,30 0 0 1 855,371.7 L862.6,395.2 A30,30 0 0 1 855,425.9 L720.5,557 A30,30 0 0 0 711.9,583.5 L743.6,768.6 A30,30 0 0 1 731.7,797.9 L711.8,812.4 A30,30 0 0 1 680.2,814.7 L514,727.3 A30,30 0 0 0 486,727.3 L319.8,814.7 A30,30 0 0 1 288.2,812.4 L268.3,797.9 A30,30 0 0 1 256.4,768.6 L288.1,583.5 A30,30 0 0 0 279.5,557 L145,425.9 A30,30 0 0 1 137.4,395.2 L145,371.7 A30,30 0 0 1 169.3,351.3 L355.1,324.3 A30,30 0 0 0 377.7,307.9 Z" fill="none" stroke="#243447" stroke-width="10" stroke-linejoin="round"/>
</svg>
